HIERARCHY
ROOT Hips
{
	OFFSET 0.00000 0.00000 0.00000
	CHANNELS 6 Xposition Yposition Zposition Zrotation Yrotation Xrotation 
	JOINT RightUpLegDummy
	{
		OFFSET 0 0 0
		CHANNELS 3 Zrotation Yrotation Xrotation
		JOINT RightUpLeg
		{
			OFFSET -3.52197 -3.41223 0.04002
			CHANNELS 3 Zrotation Yrotation Xrotation
			JOINT RightLeg
			{
				OFFSET 0.00006 -17.42390 1.60435
				CHANNELS 3 Zrotation Yrotation Xrotation
				JOINT RightFoot
				{
					OFFSET 0.06154 -16.50078 -1.63900
					CHANNELS 3 Zrotation Yrotation Xrotation
					JOINT RightToes
					{
						OFFSET 0.00298 -1.73825 3.34613
						CHANNELS 3 Zrotation Yrotation Xrotation
						End Site
						{
							OFFSET 0.00480 -0.05416 3.85043
						}
					}
				}
			}
		}
	}
	JOINT SpineDummy
	{
		OFFSET 0 0 0
		CHANNELS 3 Zrotation Yrotation Xrotation
		JOINT Spine
		{
			OFFSET 0.00000 4.68130 0.00000
			CHANNELS 3 Zrotation Yrotation Xrotation
			JOINT Spine1
			{
				OFFSET -0.00000 10.10138 0.05002
				CHANNELS 3 Zrotation Yrotation Xrotation
				JOINT HEadDummy
				{
					OFFSET 0 0 0
					CHANNELS 3 Zrotation Yrotation Xrotation
					JOINT Head
					{
						OFFSET -0.00000 3.43865 0.00438
						CHANNELS 3 Zrotation Yrotation Xrotation
						End Site
						{
							OFFSET -0.11417 5.02924 0.98962
						}
					}
				}
				JOINT LeftShoulder1Dummy
				{
					OFFSET 0 0 0
					CHANNELS 3 Zrotation Yrotation Xrotation
					JOINT LeftShoulder1
					{
						OFFSET 3.53937 -0.14262 -0.08662
						CHANNELS 3 Zrotation Yrotation Xrotation
						JOINT LeftArm
						{
							OFFSET 4.04833 -0.00133 0.12681
							CHANNELS 3 Zrotation Yrotation Xrotation
							JOINT LeftForeArm
							{
								OFFSET 10.33880 -0.01036 -0.55515
								CHANNELS 3 Zrotation Yrotation Xrotation
								JOINT LeftHand
								{
									OFFSET 8.69677 0.07543 0.40060
									CHANNELS 3 Zrotation Yrotation Xrotation
									End Site
									{
										OFFSET 5.28377 -0.21905 0.59205
									}
								}
							}
						}
					}
				}
				JOINT RightShoulderDummy
				{
					OFFSET 0 0 0
					CHANNELS 3 Zrotation Yrotation Xrotation
					JOINT RightShoulder
					{
						OFFSET -3.53937 -0.14262 -0.08660
						CHANNELS 3 Zrotation Yrotation Xrotation
						JOINT RightArm
						{
							OFFSET -4.04833 -0.00133 0.12683
							CHANNELS 3 Zrotation Yrotation Xrotation
							JOINT RightForeArm
							{
								OFFSET -10.37987 -0.01039 -0.55511
								CHANNELS 3 Zrotation Yrotation Xrotation
								JOINT RightHand
								{
									OFFSET -8.67398 0.07538 0.40058
									CHANNELS 3 Zrotation Yrotation Xrotation
									End Site
									{
										OFFSET -5.24810 -0.21916 0.59204
									}
								}
							}
						}
					}
				}
			}
		}
	}
	JOINT LeftUpLegDummy
	{
		OFFSET 0 0 0
		CHANNELS 3 Zrotation Yrotation Xrotation
		JOINT LeftUpLeg
		{
			OFFSET 3.52197 -3.41223 0.04002
			CHANNELS 3 Zrotation Yrotation Xrotation
			JOINT LeftLeg
			{
				OFFSET -0.00012 -17.42399 1.60337
				CHANNELS 3 Zrotation Yrotation Xrotation
				JOINT LeftFoot
				{
					OFFSET -0.09972 -16.50070 -1.63802
					CHANNELS 3 Zrotation Yrotation Xrotation
					JOINT LeftToes
					{
						OFFSET -0.01575 -1.73823 3.34611
						CHANNELS 3 Zrotation Yrotation Xrotation
						End Site
						{
							OFFSET 0.03150 -0.01868 3.85031
						}
					}
				}
			}
		}
	}
}
MOTION
Frames: 8
Frame Time: 0.033333
-0.3791 38.6641 0.0654 154.0460 82.5379 156.0760 0.0000 0.0000 0.0000 -4.8089 -4.2353 -24.2907 -0.6443 -8.9568 -0.7857 9.9844 -1.2924 3.5226 0.0000 0.0000 -0.0000 0.0000 0.0000 0.0000 -12.5868 -6.9972 -10.4153 6.2681 -8.8306 20.5060 0.0000 0.0000 0.0000 -1.1042 5.3770 -10.2283 0.0000 0.0000 0.0000 -18.7713 -3.8034 1.8495 -51.4731 -32.2720 0.7486 -11.5205 -12.0491 13.4823 17.3038 -3.4114 -1.2893 0.0000 0.0000 0.0000 18.4848 1.6572 1.2933 58.3685 -3.3265 -8.2583 13.0253 5.4157 36.7763 -5.8826 1.3395 -0.3288 0.0000 0.0000 0.0000 -6.7480 0.0162 11.6968 -1.9699 -1.6266 6.7249 3.0841 0.2188 -15.9147 0.0000 0.0000 0.0000
1.4631 38.4614 0.0945 154.9280 83.0252 157.2720 0.0000 0.0000 0.0000 -4.2580 -4.8455 -23.7525 1.4613 -9.8227 -5.5930 14.0435 -1.3059 -0.7912 0.0000 0.0000 -0.0000 0.0000 0.0000 0.0000 -12.3003 -7.0010 -10.6204 7.3872 -9.3206 20.3541 0.0000 0.0000 0.0000 -1.6009 5.7543 -11.1638 0.0000 0.0000 0.0000 -18.8238 -3.9827 1.8985 -51.2003 -32.1050 7.5795 -10.3544 -14.4350 7.9593 17.2690 -3.5261 -1.3029 0.0000 0.0000 0.0000 18.5438 1.6658 1.2982 57.9020 -5.1592 -11.1209 12.7260 4.7460 37.8242 -6.2819 1.4145 -0.3554 0.0000 0.0000 0.0000 -5.9400 0.4733 14.2127 -1.9146 -2.1132 6.9548 1.6238 0.1556 -15.6804 0.0000 0.0000 0.0000
3.4011 38.2714 0.1084 157.8580 84.2427 160.0730 0.0000 0.0000 0.0000 -2.8237 -4.1969 -23.8973 1.3354 -12.6333 -2.9957 11.6117 -1.2621 1.0628 0.0000 0.0000 -0.0000 0.0000 0.0000 0.0000 -10.5048 -6.7511 -10.9913 7.5187 -9.3656 20.8029 0.0000 0.0000 0.0000 -1.9116 6.3471 -12.0922 0.0000 0.0000 0.0000 -19.0622 -4.2756 1.9899 -50.7552 -31.2281 12.8120 -9.5029 -15.8705 4.3742 17.1286 -3.5329 -1.2929 0.0000 0.0000 0.0000 18.9077 1.7933 1.3481 57.1362 -6.1158 -13.6982 12.4350 3.6184 39.0287 -6.7948 1.5119 -0.3903 0.0000 0.0000 0.0000 -5.2655 0.4832 16.8094 -1.1053 -1.5651 8.1544 -0.6352 0.0696 -14.8572 0.0000 0.0000 0.0000
5.4373 38.0999 0.0863 169.5330 85.4727 171.4450 0.0000 0.0000 0.0000 -0.9836 -2.9790 -23.6953 0.0443 -14.7128 1.7649 5.3309 -0.8874 8.1896 0.0000 0.0000 -0.0000 0.0000 0.0000 0.0000 -7.2244 -6.7014 -11.4612 6.7242 -9.2474 20.9644 0.0000 0.0000 0.0000 -2.3967 7.1456 -12.2202 0.0000 0.0000 0.0000 -19.7133 -4.5994 2.1217 -50.3223 -29.4601 14.0187 -9.9372 -15.6061 4.7745 17.1037 -3.5894 -1.2989 0.0000 0.0000 0.0000 19.2652 1.9384 1.4030 56.1663 -6.1705 -15.5191 12.0241 1.8789 41.0974 -6.4502 1.3877 -0.3640 0.0000 0.0000 0.0000 -3.9895 0.9937 18.1728 -0.2387 -0.9350 11.9782 -4.5067 0.0175 -12.8533 0.0000 0.0000 0.0000
7.4341 38.0820 0.0388 -162.3450 85.9867 -160.6340 0.0000 0.0000 0.0000 1.0898 -1.9289 -22.6591 -0.4207 -14.3932 5.2477 1.9005 -0.3475 12.0149 0.0000 0.0000 -0.0000 0.0000 0.0000 0.0000 -3.0346 -6.6285 -11.3413 5.9315 -9.1091 20.0992 0.0000 0.0000 0.0000 -3.0374 7.8063 -11.4142 0.0000 0.0000 0.0000 -20.3652 -4.7718 2.2171 -50.6963 -27.3871 8.9066 -12.0548 -12.7596 11.3434 17.2063 -3.6412 -1.3143 0.0000 0.0000 0.0000 19.2467 2.0300 1.4257 55.4874 -5.5347 -16.4419 11.4141 0.3407 43.1394 -5.1437 1.0833 -0.2767 0.0000 0.0000 0.0000 -1.5871 1.9197 16.6265 0.4013 0.1209 19.8724 -8.7059 0.4187 -6.3400 0.0000 0.0000 0.0000
9.2247 38.1533 0.0154 -132.7170 84.9775 -131.2140 0.0000 0.0000 0.0000 3.4585 -1.2204 -21.6891 -0.6779 -13.7855 9.3330 2.0882 -0.3394 8.9079 0.0000 0.0000 -0.0000 0.0000 0.0000 0.0000 1.0230 -6.3046 -10.1311 6.0199 -8.8833 18.8582 0.0000 0.0000 0.0000 -3.2925 7.9028 -10.5454 0.0000 0.0000 0.0000 -20.4841 -4.7427 2.2185 -52.1860 -25.7892 0.1311 -14.0592 -8.0984 21.0176 17.1672 -3.4316 -1.2816 0.0000 0.0000 0.0000 18.9717 2.0749 1.4230 55.3132 -4.0239 -17.0478 10.8558 -0.3184 43.8649 -3.9574 0.8403 -0.2044 0.0000 0.0000 0.0000 1.2881 2.1794 11.7378 1.4217 1.3774 31.6399 -10.6069 1.6016 6.1940 0.0000 0.0000 0.0000
10.7578 38.1169 0.0508 -119.7290 83.2982 -118.7150 0.0000 0.0000 0.0000 5.7855 -0.9315 -20.6869 -1.4975 -13.6041 13.8230 2.8954 -0.3702 3.7747 0.0000 0.0000 -0.0000 0.0000 0.0000 0.0000 3.9512 -5.9042 -8.2589 6.9271 -8.5114 18.5260 0.0000 0.0000 0.0000 -2.6939 7.2659 -10.3236 0.0000 0.0000 0.0000 -20.2482 -4.6666 2.1800 -54.0107 -24.7996 -5.4378 -14.7541 -4.3839 27.3699 16.8251 -3.0073 -1.1964 0.0000 0.0000 0.0000 18.9988 2.0551 1.4193 55.2387 -1.2663 -16.8525 10.7239 -0.2476 42.5057 -4.0054 0.8160 -0.2064 0.0000 0.0000 0.0000 3.4892 0.9389 5.2117 2.7166 1.9171 44.2874 -10.4605 2.7267 19.0289 0.0000 0.0000 0.0000
12.2765 38.1236 0.1284 -115.8710 82.6191 -115.6180 0.0000 0.0000 0.0000 7.1378 -0.9289 -18.5987 -2.3510 -13.2199 16.5593 2.5739 -0.2655 0.5191 0.0000 0.0000 -0.0000 0.0000 0.0000 0.0000 5.2276 -5.3981 -6.8836 7.5545 -7.8190 19.0427 0.0000 0.0000 0.0000 -1.4243 6.1461 -10.2922 0.0000 0.0000 0.0000 -20.1577 -4.6584 2.1709 -55.2134 -23.7185 -5.7533 -15.1482 -2.8896 29.2529 16.5187 -2.8531 -1.1529 0.0000 0.0000 0.0000 19.5174 1.9356 1.4151 54.9681 2.5158 -15.5558 11.1495 -0.0210 40.6499 -5.1602 1.0101 -0.2750 0.0000 0.0000 0.0000 4.0577 -0.8756 -1.1736 4.6245 2.2811 55.1198 -8.8551 2.7864 25.4203 0.0000 0.0000 0.0000
